<?xml version="1.0" encoding="UTF-8"?>
<svg width="150px" height="42px" viewBox="0 0 150 42" version="1.1" xmlns="http://www.w3.org/2000/svg" xmlns:xlink="http://www.w3.org/1999/xlink">
    <!-- Generator: Sketch 47.1 (45422) - http://www.bohemiancoding.com/sketch -->
    <title>logo</title>
    <desc>Created with Sketch.</desc>
    <defs></defs>
    <g id="Page-1" stroke="none" stroke-width="1" fill="none" fill-rule="evenodd">
        <g id="just-eat-logo" fill-rule="nonzero" fill="#FA0029">
            <path d="M111.238318,22.7126168 L114.345794,15.9252336 C114.614486,15.3528037 114.614486,15.3528037 114.964953,15.3528037 C115.36215,15.3528037 115.36215,15.3528037 115.455607,15.9719626 L116.390187,22.7126168 L111.238318,22.7126168 Z M119.614486,13.2616822 C119.123832,10.5981308 119.123832,10.5981308 115.350467,10.5981308 C111.799065,10.5981308 111.845794,10.5981308 110.78271,12.771028 L102.745327,29.4065421 C101.588785,31.8014019 101.764019,31.9766355 104.742991,31.9766355 C107.056075,31.9766355 107.009346,31.9766355 107.978972,29.8504673 L109.264019,27.0116822 L116.985981,27.0116822 L117.383178,29.8504673 C117.698598,31.9766355 117.780374,31.9766355 120.093458,31.9766355 C122.686916,31.9766355 122.943925,31.7897196 122.441589,29.2196262 L119.614486,13.2616822 Z" id="XMLID_7_"></path>
            <path d="M101.168224,15.1191589 C103.049065,15.1191589 103.060748,15.0957944 103.446262,12.8528037 C103.831776,10.5981308 103.831776,10.5864486 102.102804,10.5864486 L92.5233645,10.5864486 C89.1471963,10.5864486 89.2172897,10.5864486 88.6331776,13.9976636 L86.1799065,28.2850467 C85.5607477,31.9649533 85.5957944,31.9649533 89.0537383,31.9649533 L98.411215,31.9649533 C100.36215,31.9649533 100.315421,31.9649533 100.724299,29.7453271 C101.121495,27.432243 101.121495,27.432243 99.3457944,27.432243 L91.2733645,27.432243 L91.9392523,23.3084112 L98.6448598,23.3084112 C100.46729,23.3084112 100.46729,23.3084112 100.771028,21.182243 C101.121495,19.0093458 101.121495,19.0093458 98.6448598,19.0093458 L92.6518692,19.0093458 L93.317757,15.1074766 L101.168224,15.1074766 L101.168224,15.1191589 Z" id="XMLID_6_"></path>
            <path d="M77.6051402,10.5981308 L64.182243,10.5981308 C62.2780374,10.5981308 62.2780374,10.5981308 61.8691589,12.864486 C61.4602804,15.1308411 61.5186916,15.1308411 63.2009346,15.1308411 L67.5700935,15.1308411 L65.1401869,29.2429907 C64.6962617,32 64.7313084,32 67.2196262,32 C69.4859813,32 69.6261682,32 69.9299065,30.0490654 L72.5,15.1425234 L76.6705607,15.1425234 C78.5514019,15.1425234 78.5514019,15.1425234 78.9485981,12.8761682 C79.3457944,10.5981308 79.3341121,10.5981308 77.6051402,10.5981308 Z" id="XMLID_5_"></path>
            <path d="M40.8878505,10.5981308 C38.5514019,10.5981308 38.5046729,10.6098131 38.1775701,12.5607477 L36.4135514,22.8411215 C35.9228972,25.8200935 35.1168224,27.5607477 32.2313084,27.5607477 C29.3457944,27.5607477 28.364486,25.8317757 28.8084112,23.1682243 L30.478972,13.3317757 C30.9228972,10.5747664 30.8411215,10.5981308 28.3995327,10.5981308 C26.0163551,10.5981308 25.9579439,10.5747664 25.6425234,12.5373832 L23.8668224,22.8528037 C22.8621495,28.6939252 26.4485981,32.3037383 31.6004673,32.3037383 C37.3714953,32.3037383 40.2686916,29.7336449 41.25,23.5654206 L43.0023364,13.3551402 C43.4813084,10.5981308 43.3761682,10.5981308 40.8878505,10.5981308 Z" id="XMLID_4_"></path>
            <path d="M21.0747664,10.5981308 L15.1985981,10.5981308 C13.271028,10.5981308 13.271028,10.5981308 12.885514,12.8294393 C12.4883178,15.0607477 12.5350467,15.1308411 14.2406542,15.1308411 L17.7336449,15.1308411 L15.7943925,26.4158879 C15.3621495,28.9509346 14.2172897,30.6565421 10.817757,31.7079439 C9.94158879,31.9649533 9.68457944,32.3154206 9.68457944,32.7126168 C9.68457944,33.1448598 9.85981308,33.588785 10.2102804,34.5 C10.7359813,35.8551402 11.0864486,36.1121495 11.5654206,36.1121495 C12.0443925,36.1121495 12.9205607,35.8551402 13.2242991,35.7616822 C18.0724299,34.1845794 20,30.4696262 20.7827103,26.0186916 L22.9672897,13.3084112 C23.4345794,10.6448598 23.4345794,10.5981308 21.0747664,10.5981308 Z" id="XMLID_3_"></path>
            <path d="M51.6939252,27.4672897 C53.5864486,27.3504673 54.5794393,26.5443925 54.5794393,25.6098131 C54.5794393,24.5 53.2009346,24.1028037 51.3901869,23.5654206 C47.7920561,22.4556075 44.6028037,21.1939252 44.6028037,17.385514 C44.6028037,12.8995327 48.2827103,10.4696262 52.9439252,10.4696262 C54.8948598,10.4696262 57.1378505,10.5864486 58.5864486,10.7149533 C59.8948598,10.8317757 60.1285047,11.2990654 59.7897196,13.25 C59.4509346,15.2009346 58.9953271,15.3995327 57.9205607,15.3060748 C56.5771028,15.1892523 54.8364486,15.0724299 52.8154206,15.0957944 C50.4205607,15.1308411 49.7429907,15.9369159 49.7429907,16.7780374 C49.7429907,17.7943925 50.6775701,18.3785047 52.8971963,18.9509346 C57.021028,20.1542056 59.7313084,21.7780374 59.7313084,25.3294393 C59.7313084,29.5 56.6238318,31.9415888 51.6588785,32.1401869 C48.9485981,32.2453271 46.6238318,32.046729 44.567757,31.7429907 C42.9906542,31.5093458 42.932243,31.4859813 43.317757,29.2079439 C43.6799065,27.1401869 43.7266355,26.9883178 45.1752336,27.1635514 C47.978972,27.5140187 49.8014019,27.5841121 51.6939252,27.4672897 Z" id="XMLID_2_"></path>
            <path d="M138.551402,10.5981308 L125.128505,10.5981308 C123.224299,10.5981308 123.224299,10.5981308 122.815421,12.864486 C122.418224,15.1308411 122.464953,15.1308411 124.147196,15.1308411 L128.516355,15.1308411 L126.086449,29.2429907 C125.642523,32 125.67757,32 128.165888,32 C130.432243,32 130.57243,32 130.876168,30.0490654 L133.446262,15.1425234 L137.616822,15.1425234 C139.497664,15.1425234 139.497664,15.1425234 139.89486,12.8761682 C140.292056,10.5981308 140.280374,10.5981308 138.551402,10.5981308 Z" id="XMLID_1_"></path>
        </g>
    </g>
</svg>