<?xml version="1.0" encoding="UTF-8"?>
<svg width="150px" height="43px" viewBox="0 0 150 43" version="1.1" xmlns="http://www.w3.org/2000/svg" xmlns:xlink="http://www.w3.org/1999/xlink">
    <!-- Generator: Sketch 47.1 (45422) - http://www.bohemiancoding.com/sketch -->
    <title>just-eat-logo</title>
    <desc>Created with Sketch.</desc>
    <defs></defs>
    <g id="Page-1" stroke="none" stroke-width="1" fill="none" fill-rule="evenodd">
        <g id="just-eat-logo" fill-rule="nonzero">
            <path d="M148.597257,43 L1.40274314,43 C0.631234414,43 0,42.3697068 0,41.5993485 L0,1.40065147 C0,0.63029316 0.631234414,0 1.40274314,0 L148.597257,0 C149.368766,0 150,0.63029316 150,1.40065147 L150,41.5993485 C150,42.3697068 149.368766,43 148.597257,43 Z" id="Shape" fill="#FFFFFF"></path>
            <path d="M111.238318,20.7126168 L114.345794,13.9252336 C114.614486,13.3528037 114.614486,13.3528037 114.964953,13.3528037 C115.36215,13.3528037 115.36215,13.3528037 115.455607,13.9719626 L116.390187,20.7126168 L111.238318,20.7126168 Z M119.614486,11.2616822 C119.123832,8.59813084 119.123832,8.59813084 115.350467,8.59813084 C111.799065,8.59813084 111.845794,8.59813084 110.78271,10.771028 L102.745327,27.4065421 C101.588785,29.8014019 101.764019,29.9766355 104.742991,29.9766355 C107.056075,29.9766355 107.009346,29.9766355 107.978972,27.8504673 L109.264019,25.0116822 L116.985981,25.0116822 L117.383178,27.8504673 C117.698598,29.9766355 117.780374,29.9766355 120.093458,29.9766355 C122.686916,29.9766355 122.943925,29.7897196 122.441589,27.2196262 L119.614486,11.2616822 Z" id="XMLID_7_" fill="#FA0029"></path>
            <path d="M101.168224,13.1191589 C103.049065,13.1191589 103.060748,13.0957944 103.446262,10.8528037 C103.831776,8.59813084 103.831776,8.5864486 102.102804,8.5864486 L92.5233645,8.5864486 C89.1471963,8.5864486 89.2172897,8.5864486 88.6331776,11.9976636 L86.1799065,26.2850467 C85.5607477,29.9649533 85.5957944,29.9649533 89.0537383,29.9649533 L98.411215,29.9649533 C100.36215,29.9649533 100.315421,29.9649533 100.724299,27.7453271 C101.121495,25.432243 101.121495,25.432243 99.3457944,25.432243 L91.2733645,25.432243 L91.9392523,21.3084112 L98.6448598,21.3084112 C100.46729,21.3084112 100.46729,21.3084112 100.771028,19.182243 C101.121495,17.0093458 101.121495,17.0093458 98.6448598,17.0093458 L92.6518692,17.0093458 L93.317757,13.1074766 L101.168224,13.1074766 L101.168224,13.1191589 Z" id="XMLID_6_" fill="#FA0029"></path>
            <path d="M77.6051402,8.59813084 L64.182243,8.59813084 C62.2780374,8.59813084 62.2780374,8.59813084 61.8691589,10.864486 C61.4602804,13.1308411 61.5186916,13.1308411 63.2009346,13.1308411 L67.5700935,13.1308411 L65.1401869,27.2429907 C64.6962617,30 64.7313084,30 67.2196262,30 C69.4859813,30 69.6261682,30 69.9299065,28.0490654 L72.5,13.1425234 L76.6705607,13.1425234 C78.5514019,13.1425234 78.5514019,13.1425234 78.9485981,10.8761682 C79.3457944,8.59813084 79.3341121,8.59813084 77.6051402,8.59813084 Z" id="XMLID_5_" fill="#FA0029"></path>
            <path d="M40.8878505,8.59813084 C38.5514019,8.59813084 38.5046729,8.60981308 38.1775701,10.5607477 L36.4135514,20.8411215 C35.9228972,23.8200935 35.1168224,25.5607477 32.2313084,25.5607477 C29.3457944,25.5607477 28.364486,23.8317757 28.8084112,21.1682243 L30.478972,11.3317757 C30.9228972,8.57476636 30.8411215,8.59813084 28.3995327,8.59813084 C26.0163551,8.59813084 25.9579439,8.57476636 25.6425234,10.5373832 L23.8668224,20.8528037 C22.8621495,26.6939252 26.4485981,30.3037383 31.6004673,30.3037383 C37.3714953,30.3037383 40.2686916,27.7336449 41.25,21.5654206 L43.0023364,11.3551402 C43.4813084,8.59813084 43.3761682,8.59813084 40.8878505,8.59813084 Z" id="XMLID_4_" fill="#FA0029"></path>
            <path d="M21.0747664,8.59813084 L15.1985981,8.59813084 C13.271028,8.59813084 13.271028,8.59813084 12.885514,10.8294393 C12.4883178,13.0607477 12.5350467,13.1308411 14.2406542,13.1308411 L17.7336449,13.1308411 L15.7943925,24.4158879 C15.3621495,26.9509346 14.2172897,28.6565421 10.817757,29.7079439 C9.94158879,29.9649533 9.68457944,30.3154206 9.68457944,30.7126168 C9.68457944,31.1448598 9.85981308,31.588785 10.2102804,32.5 C10.7359813,33.8551402 11.0864486,34.1121495 11.5654206,34.1121495 C12.0443925,34.1121495 12.9205607,33.8551402 13.2242991,33.7616822 C18.0724299,32.1845794 20,28.4696262 20.7827103,24.0186916 L22.9672897,11.3084112 C23.4345794,8.64485981 23.4345794,8.59813084 21.0747664,8.59813084 Z" id="XMLID_3_" fill="#FA0029"></path>
            <path d="M51.6939252,25.4672897 C53.5864486,25.3504673 54.5794393,24.5443925 54.5794393,23.6098131 C54.5794393,22.5 53.2009346,22.1028037 51.3901869,21.5654206 C47.7920561,20.4556075 44.6028037,19.1939252 44.6028037,15.385514 C44.6028037,10.8995327 48.2827103,8.46962617 52.9439252,8.46962617 C54.8948598,8.46962617 57.1378505,8.5864486 58.5864486,8.71495327 C59.8948598,8.8317757 60.1285047,9.29906542 59.7897196,11.25 C59.4509346,13.2009346 58.9953271,13.3995327 57.9205607,13.3060748 C56.5771028,13.1892523 54.8364486,13.0724299 52.8154206,13.0957944 C50.4205607,13.1308411 49.7429907,13.9369159 49.7429907,14.7780374 C49.7429907,15.7943925 50.6775701,16.3785047 52.8971963,16.9509346 C57.021028,18.1542056 59.7313084,19.7780374 59.7313084,23.3294393 C59.7313084,27.5 56.6238318,29.9415888 51.6588785,30.1401869 C48.9485981,30.2453271 46.6238318,30.046729 44.567757,29.7429907 C42.9906542,29.5093458 42.932243,29.4859813 43.317757,27.2079439 C43.6799065,25.1401869 43.7266355,24.9883178 45.1752336,25.1635514 C47.978972,25.5140187 49.8014019,25.5841121 51.6939252,25.4672897 Z" id="XMLID_2_" fill="#FA0029"></path>
            <path d="M138.551402,8.59813084 L125.128505,8.59813084 C123.224299,8.59813084 123.224299,8.59813084 122.815421,10.864486 C122.418224,13.1308411 122.464953,13.1308411 124.147196,13.1308411 L128.516355,13.1308411 L126.086449,27.2429907 C125.642523,30 125.67757,30 128.165888,30 C130.432243,30 130.57243,30 130.876168,28.0490654 L133.446262,13.1425234 L137.616822,13.1425234 C139.497664,13.1425234 139.497664,13.1425234 139.89486,10.8761682 C140.292056,8.59813084 140.280374,8.59813084 138.551402,8.59813084 Z" id="XMLID_1_" fill="#FA0029"></path>
        </g>
    </g>
</svg>