<?xml version="1.0" encoding="UTF-8"?>
<svg width="28px" height="28px" viewBox="0 0 28 28" version="1.1" xmlns="http://www.w3.org/2000/svg" xmlns:xlink="http://www.w3.org/1999/xlink">
    <!-- Generator: Sketch 48.2 (47327) - http://www.bohemiancoding.com/sketch -->
    <title>refine</title>
    <desc>Created with Sketch.</desc>
    <defs></defs>
    <g id="Web" stroke="none" stroke-width="1" fill="none" fill-rule="evenodd" transform="translate(-699.000000, -914.000000)">
        <g id="refine" transform="translate(699.000000, 914.000000)" fill-rule="nonzero">
            <g id="Group-2" transform="translate(1.000000, 3.000000)">
                <rect id="Rectangle-path" fill="#010101" x="10.4" y="4.29767442" width="15.5518519" height="2.93023256"></rect>
                <path d="M5.68148148,0.488372093 C8.57037037,0.537209302 10.8333333,2.83255814 10.8333333,5.81162791 C10.8333333,8.74186047 8.52222222,11.0372093 5.63333333,11.0372093 C2.64814815,11.0372093 0.385185185,8.69302326 0.433333333,5.66511628 C0.433333333,2.73488372 2.74444444,0.439534884 5.68148148,0.488372093 M5.68148148,3.61395349 C4.52592593,3.56511628 3.56296296,4.54186047 3.56296296,5.71395349 C3.56296296,6.8372093 4.38148148,7.76511628 5.48888889,7.8627907 C6.64444444,7.96046512 7.65555556,7.03255814 7.75185185,5.86046512 C7.75185185,4.7372093 6.78888889,3.6627907 5.68148148,3.61395349" id="Shape" fill="#000000"></path>
                <path d="M15.3111111,10.1093023 C18.2,10.1581395 20.462963,12.4534884 20.462963,15.4325581 C20.462963,18.3627907 18.1518519,20.6581395 15.262963,20.6581395 C12.2777778,20.6581395 10.0148148,18.3139535 10.062963,15.2860465 C10.1111111,12.3069767 12.3740741,10.0604651 15.3111111,10.1093023 M15.3111111,13.2348837 C14.1555556,13.1860465 13.1925926,14.1627907 13.1925926,15.3348837 C13.1925926,16.4581395 14.0111111,17.3860465 15.1185185,17.4837209 C16.2740741,17.5813953 17.2851852,16.6534884 17.3814815,15.4813953 C17.4296296,14.3581395 16.4185185,13.2837209 15.3111111,13.2348837" id="Shape" fill="#000000"></path>
                <rect id="Rectangle-path" fill="#010101" x="0.337037037" y="13.8697674" width="12.8555556" height="2.93023256"></rect>
                <rect id="Rectangle-path" fill="#010101" x="17.6222222" y="13.8697674" width="8.28148148" height="2.93023256"></rect>
            </g>
        </g>
    </g>
</svg>