<?xml version="1.0" encoding="utf-8"?>
<!-- Generator: Adobe Illustrator 19.2.1, SVG Export Plug-In . SVG Version: 6.00 Build 0)  -->
<svg version="1.1" id="Layer_2" xmlns="http://www.w3.org/2000/svg" xmlns:xlink="http://www.w3.org/1999/xlink" x="0px" y="0px"
	 viewBox="0 0 85 85" style="enable-background:new 0 0 85 85;" xml:space="preserve">
<style type="text/css">
	.st0{fill:#EAEAEA;}
	.st1{fill:#FFFFFF;}
</style>
<rect x="3.7" y="3.7" class="st0" width="77.7" height="77.7"/>
<g>
	<g>
		<path id="XMLID_21_" class="st1" d="M70.1,23.1H59c-1.6,0-1.6,0-1.9,1.9c-0.3,1.9-0.3,1.9,1.1,1.9h3.6l-2,11.7
			c-0.4,2.3-0.3,2.3,1.7,2.3c1.9,0,2,0,2.3-1.6l2.1-12.4h3.5c1.6,0,1.6,0,1.9-1.9C71.6,23.1,71.6,23.1,70.1,23.1z"/>
		<path id="XMLID_20_" class="st1" d="M39.6,23.1c-1.9,0-2,0-2.3,1.6l-1.5,8.6c-0.4,2.5-1.1,3.9-3.5,3.9s-3.2-1.4-2.8-3.7l1.4-8.2
			c0.4-2.3,0.3-2.3-1.7-2.3c-2,0-2,0-2.3,1.6l-1.5,8.6c-0.8,4.9,2.1,7.9,6.4,7.9c4.8,0,7.2-2.1,8-7.3l1.5-8.5
			C41.7,23.1,41.6,23.1,39.6,23.1z"/>
		<path id="XMLID_19_" class="st1" d="M23.1,23.1h-4.9c-1.6,0-1.6,0-1.9,1.9c-0.3,1.8-0.3,1.9,1.1,1.9h2.9l-1.6,9.4
			c-0.4,2.1-1.3,3.5-4.1,4.4c-0.7,0.2-0.9,0.5-0.9,0.8c0,0.4,0.1,0.7,0.4,1.5c0.4,1.1,0.7,1.3,1.1,1.3c0.4,0,1.1-0.2,1.4-0.3
			c4-1.3,5.6-4.4,6.3-8.1l1.8-10.6C25.1,23.1,25.1,23.1,23.1,23.1z"/>
		<path id="XMLID_11_" class="st1" d="M48.6,37.1c1.6-0.1,2.4-0.8,2.4-1.5c0-0.9-1.1-1.3-2.7-1.7c-3-0.9-5.6-2-5.6-5.1
			c0-3.7,3.1-5.8,6.9-5.8c1.6,0,3.5,0.1,4.7,0.2c1.1,0.1,1.3,0.5,1,2.1s-0.7,1.8-1.6,1.7c-1.1-0.1-2.6-0.2-4.2-0.2
			c-2,0-2.6,0.7-2.6,1.4c0,0.8,0.8,1.3,2.6,1.8c3.4,1,5.7,2.4,5.7,5.3c0,3.5-2.6,5.5-6.7,5.7c-2.3,0.1-4.2-0.1-5.9-0.3
			c-1.3-0.2-1.4-0.2-1-2.1c0.3-1.7,0.3-1.8,1.5-1.7C45.5,37.1,47,37.2,48.6,37.1z"/>
	</g>
	<g>
		<path id="XMLID_23_" class="st1" d="M47.4,54.3l2.6-5.6c0.2-0.5,0.2-0.5,0.5-0.5c0.3,0,0.3,0,0.4,0.5l0.8,5.6H47.4z M54.4,46.5
			c-0.4-2.2-0.4-2.2-3.5-2.2c-3,0-2.9,0-3.8,1.8l-6.7,13.8c-1,2-0.8,2.1,1.7,2.1c1.9,0,1.9,0,2.7-1.8l1.1-2.4h6.4l0.3,2.4
			c0.3,1.8,0.3,1.8,2.3,1.8c2.2,0,2.4-0.2,2-2.3L54.4,46.5z"/>
		<path id="XMLID_22_" class="st1" d="M39,48c1.6,0,1.6,0,1.9-1.9c0.3-1.9,0.3-1.9-1.1-1.9h-8c-2.8,0-2.8,0-3.2,2.8l-2,11.9
			C26,62,26.1,62,28.9,62h7.8c1.6,0,1.6,0,1.9-1.8c0.3-1.9,0.3-1.9-1.1-1.9h-6.7l0.6-3.4h5.6c1.5,0,1.5,0,1.8-1.8
			c0.3-1.8,0.3-1.8-1.8-1.8h-5l0.6-3.2L39,48L39,48z"/>
		<path id="XMLID_10_" class="st1" d="M70.1,44.3H59c-1.6,0-1.6,0-1.9,1.9C56.7,48,56.7,48,58.1,48h3.6l-2,11.7
			c-0.4,2.3-0.3,2.3,1.7,2.3c1.9,0,2,0,2.3-1.6L65.9,48h3.5c1.6,0,1.6,0,1.9-1.9S71.6,44.3,70.1,44.3z"/>
	</g>
</g>
</svg>
