<?xml version="1.0" encoding="UTF-8"?>
<svg width="20px" height="24px" viewBox="0 0 20 24" version="1.1" xmlns="http://www.w3.org/2000/svg" xmlns:xlink="http://www.w3.org/1999/xlink">
    <!-- Generator: Sketch 47.1 (45422) - http://www.bohemiancoding.com/sketch -->
    <title>search-icon</title>
    <desc>Created with Sketch.</desc>
    <defs></defs>
    <g id="Page-1" stroke="none" stroke-width="1" fill="none" fill-rule="evenodd">
        <g id="search-icon" transform="translate(-10.000000, -10.000000)" fill="#FFFFFF" fill-rule="nonzero">
            <path d="M19.0784843,12.7589916 C17.8467433,12.7589916 16.6534942,13.1038656 15.6142127,13.7936134 L15.5372289,13.8702521 C14.1515203,14.789916 13.1892226,16.2077311 12.8812873,17.8171429 C12.5348602,19.4648739 12.8812873,21.112605 13.8050931,22.4921008 C14.9598503,24.2164706 16.9229375,25.2510924 19.0015005,25.2510924 C20.2332415,25.2510924 21.4264906,24.9062185 22.4657721,24.2164706 L22.5427559,24.1398319 C25.391157,22.2238655 26.1994871,18.3919328 24.2748917,15.5179832 C23.1201345,13.7936134 21.1570473,12.7589916 19.0784843,12.7589916 L19.0784843,12.7589916 Z M27.0078171,33.4514286 L23.4665617,28.1633613 C23.4280698,28.125042 23.4280698,28.0867227 23.3895779,28.0484034 C23.0816426,27.5502521 22.6967236,27.4352941 22.3887883,27.4352941 C22.2348207,27.4352941 22.1578369,27.4736134 22.1578369,27.4736134 L21.4264906,27.6268908 C20.6181606,27.8568067 19.8098306,27.9717647 18.9630086,27.9717647 C15.9606399,27.9717647 13.1507307,26.4773109 11.4955787,23.9865546 C8.76265329,19.8863866 9.87891859,14.2917647 13.9975526,11.5710924 L14.0745364,11.4944538 C15.5372289,10.4981513 17.2693647,10 19.0399924,10 C22.0808531,10 24.8907623,11.4944538 26.5459143,13.9852101 C28.7399529,17.2423529 28.5474934,21.3808403 26.1225033,24.5230252 L25.6990923,25.0978151 C25.6606004,25.1361345 25.1986975,25.7109244 25.7375842,26.4389916 C25.7760761,26.4773109 25.7760761,26.5156303 25.814568,26.5539496 L25.814568,26.5922689 L29.3558234,31.8803361 L27.0078171,33.4514286 Z"></path>
        </g>
    </g>
</svg>