<?xml version="1.0" encoding="UTF-8"?>
<svg width="21px" height="25px" viewBox="0 0 21 25" version="1.1" xmlns="http://www.w3.org/2000/svg" xmlns:xlink="http://www.w3.org/1999/xlink">
    <!-- Generator: Sketch 48.2 (47327) - http://www.bohemiancoding.com/sketch -->
    <title>search-icon-black</title>
    <desc>Created with Sketch.</desc>
    <defs></defs>
    <g id="Web" stroke="none" stroke-width="1" fill="none" fill-rule="evenodd" transform="translate(-653.000000, -915.000000)">
        <g id="search-icon-black" transform="translate(653.000000, 915.000000)" fill="#000000" fill-rule="nonzero">
            <path d="M10.0784843,3.7589916 C8.84674331,3.7589916 7.65349419,4.10386555 6.61421271,4.79361345 L6.5372289,4.8702521 C5.15152025,5.78991597 4.18922258,7.20773109 3.88128733,8.81714286 C3.53486016,10.4648739 3.88128733,12.112605 4.80509309,13.4921008 C5.95985029,15.2164706 7.92293754,16.2510924 10.0015005,16.2510924 C11.2332415,16.2510924 12.4264906,15.9062185 13.4657721,15.2164706 L13.5427559,15.1398319 C16.391157,13.2238655 17.1994871,9.39193277 15.2748917,6.51798319 C14.1201345,4.79361345 12.1570473,3.7589916 10.0784843,3.7589916 Z M18.0078171,24.4514286 L14.4665617,19.1633613 C14.4280698,19.125042 14.4280698,19.0867227 14.3895779,19.0484034 C14.0816426,18.5502521 13.6967236,18.4352941 13.3887883,18.4352941 C13.2348207,18.4352941 13.1578369,18.4736134 13.1578369,18.4736134 L12.4264906,18.6268908 C11.6181606,18.8568067 10.8098306,18.9717647 9.9630086,18.9717647 C6.96063987,18.9717647 4.15073067,17.4773109 2.49557868,14.9865546 C-0.23734671,10.8863866 0.878918593,5.29176471 4.99755262,2.57109244 L5.07453644,2.49445378 C6.5372289,1.49815126 8.2693647,1 10.0399924,1 C13.0808531,1 15.8907623,2.49445378 17.5459143,4.98521008 C19.7399529,8.24235294 19.5474934,12.3808403 17.1225033,15.5230252 L16.6990923,16.0978151 C16.6606004,16.1361345 16.1986975,16.7109244 16.7375842,17.4389916 C16.7760761,17.4773109 16.7760761,17.5156303 16.814568,17.5539496 L16.814568,17.5922689 L20.3558234,22.8803361 L18.0078171,24.4514286 Z" id="search-icon-copy"></path>
        </g>
    </g>
</svg>