<?xml version="1.0" encoding="UTF-8"?>
<svg width="96px" height="12px" viewBox="0 0 96 12" version="1.1" xmlns="http://www.w3.org/2000/svg" xmlns:xlink="http://www.w3.org/1999/xlink">
    <!-- Generator: Sketch 48.2 (47327) - http://www.bohemiancoding.com/sketch -->
    <title>stars-background</title>
    <desc>Created with Sketch.</desc>
    <defs>
        <polygon id="path-1" points="88 9.95015528 84.2917961 12 85 7.65835921 82 4.58359214 86.145898 3.95015528 88 0 89.854102 3.95015528 94 4.58359214 91 7.65835921 91.7082039 12"></polygon>
        <polygon id="path-2" points="72 9.95015528 68.2917961 12 69 7.65835921 66 4.58359214 70.145898 3.95015528 72 0 73.854102 3.95015528 78 4.58359214 75 7.65835921 75.7082039 12"></polygon>
        <polygon id="path-3" points="56 9.95015528 52.2917961 12 53 7.65835921 50 4.58359214 54.145898 3.95015528 56 0 57.854102 3.95015528 62 4.58359214 59 7.65835921 59.7082039 12"></polygon>
        <polygon id="path-4" points="40 9.95015528 36.2917961 12 37 7.65835921 34 4.58359214 38.145898 3.95015528 40 0 41.854102 3.95015528 46 4.58359214 43 7.65835921 43.7082039 12"></polygon>
        <polygon id="path-5" points="24 9.95015528 20.2917961 12 21 7.65835921 18 4.58359214 22.145898 3.95015528 24 0 25.854102 3.95015528 30 4.58359214 27 7.65835921 27.7082039 12"></polygon>
        <polygon id="path-6" points="8 9.95015528 4.29179607 12 5 7.65835921 2 4.58359214 6.14589803 3.95015528 8 0 9.85410197 3.95015528 14 4.58359214 11 7.65835921 11.7082039 12"></polygon>
    </defs>
    <g id="Web" stroke="none" stroke-width="1" fill="none" fill-rule="evenodd" transform="translate(-839.000000, -917.000000)">
        <g id="StarRating" transform="translate(839.000000, 897.000000)">
            <g id="Background" transform="translate(0.000000, 20.000000)">
                <g id="Star_empty-Copy-2">
                    <use fill="#FFFFFF" fill-rule="evenodd" xlink:href="#path-1"></use>
                    <path stroke="#A3A3A3" stroke-width="1" d="M91.0489605,11.0642709 L90.4658967,7.48980122 L92.9625834,4.93089124 L89.5148443,4.40412358 L88,1.17675504 L86.4851557,4.40412358 L83.0374166,4.93089124 L85.5341033,7.48980122 L84.9510395,11.0642709 L88,9.37884696 L91.0489605,11.0642709 Z"></path>
                </g>
                <g id="Star_empty-Copy-3">
                    <use fill="#FFFFFF" fill-rule="evenodd" xlink:href="#path-2"></use>
                    <path stroke="#A3A3A3" stroke-width="1" d="M75.0489605,11.0642709 L74.4658967,7.48980122 L76.9625834,4.93089124 L73.5148443,4.40412358 L72,1.17675504 L70.4851557,4.40412358 L67.0374166,4.93089124 L69.5341033,7.48980122 L68.9510395,11.0642709 L72,9.37884696 L75.0489605,11.0642709 Z"></path>
                </g>
                <g id="Star_empty-Copy-4">
                    <use fill="#FFFFFF" fill-rule="evenodd" xlink:href="#path-3"></use>
                    <path stroke="#A3A3A3" stroke-width="1" d="M59.0489605,11.0642709 L58.4658967,7.48980122 L60.9625834,4.93089124 L57.5148443,4.40412358 L56,1.17675504 L54.4851557,4.40412358 L51.0374166,4.93089124 L53.5341033,7.48980122 L52.9510395,11.0642709 L56,9.37884696 L59.0489605,11.0642709 Z"></path>
                </g>
                <g id="Star_empty-Copy-5">
                    <use fill="#FFFFFF" fill-rule="evenodd" xlink:href="#path-4"></use>
                    <path stroke="#A3A3A3" stroke-width="1" d="M43.0489605,11.0642709 L42.4658967,7.48980122 L44.9625834,4.93089124 L41.5148443,4.40412358 L40,1.17675504 L38.4851557,4.40412358 L35.0374166,4.93089124 L37.5341033,7.48980122 L36.9510395,11.0642709 L40,9.37884696 L43.0489605,11.0642709 Z"></path>
                </g>
                <g id="Star_empty-Copy-6">
                    <use fill="#FFFFFF" fill-rule="evenodd" xlink:href="#path-5"></use>
                    <path stroke="#A3A3A3" stroke-width="1" d="M27.0489605,11.0642709 L26.4658967,7.48980122 L28.9625834,4.93089124 L25.5148443,4.40412358 L24,1.17675504 L22.4851557,4.40412358 L19.0374166,4.93089124 L21.5341033,7.48980122 L20.9510395,11.0642709 L24,9.37884696 L27.0489605,11.0642709 Z"></path>
                </g>
                <g id="Star_empty-Copy-12">
                    <use fill="#FFFFFF" fill-rule="evenodd" xlink:href="#path-6"></use>
                    <path stroke="#A3A3A3" stroke-width="1" d="M11.0489605,11.0642709 L10.4658967,7.48980122 L12.9625834,4.93089124 L9.51484434,4.40412358 L8,1.17675504 L6.48515566,4.40412358 L3.03741662,4.93089124 L5.53410328,7.48980122 L4.95103951,11.0642709 L8,9.37884696 L11.0489605,11.0642709 Z"></path>
                </g>
            </g>
        </g>
    </g>
</svg>